<svg xmlns="http://www.w3.org/2000/svg" viewBox="0 0 24 24" enable-background="new 0 0 24 24" fill="inherit" data-testid="link-icon" class="sc-aXZVg gbRgLZ"><path d="M16.5,2h-9C4.5,2,2,4.5,2,7.5v9c0,3,2.5,5.5,5.5,5.5h9c3,0,5.5-2.5,5.5-5.5v-9C22,4.5,19.5,2,16.5,2z M20.2,16.5&#10;c0,2.1-1.7,3.7-3.7,3.7h-9c-2.1,0-3.7-1.7-3.7-3.7v-9c0-2.1,1.7-3.7,3.7-3.7h9c2.1,0,3.7,1.7,3.7,3.7V16.5L20.2,16.5z"/><path d="M12,6.8c-2.8,0-5.2,2.3-5.2,5.2c0,2.8,2.3,5.2,5.2,5.2s5.2-2.3,5.2-5.2C17.2,9.2,14.8,6.8,12,6.8z M12,15.4&#10;c-1.9,0-3.4-1.5-3.4-3.4s1.5-3.4,3.4-3.4s3.4,1.5,3.4,3.4S13.9,15.4,12,15.4z"/><circle cx="17.4" cy="6.6" r="1.3"/></svg>