<svg xmlns="http://www.w3.org/2000/svg" viewBox="0 0 24 24" enable-background="new 0 0 24 24" fill="inherit" data-testid="link-icon" class="sc-aXZVg gbRgLZ"><path d="M14.6,9.3l-4,3.8c-0.1,0.1-0.2,0.3-0.3,0.5l-0.1,1c0,0.1-0.2,0.2-0.2,0l-0.5-1.9c-0.1-0.2,0-0.4,0.2-0.6l4.9-3&#10;C14.6,9.2,14.7,9.3,14.6,9.3z"/><path d="M12,2C6.5,2,2,6.5,2,12s4.5,10,10,10s10-4.5,10-10S17.5,2,12,2z M15.1,16.5c-0.1,0.2-0.3,0.3-0.5,0.2l-2.5-1.8&#10;c-0.1-0.1-0.4-0.1-0.5,0L10.2,16C10,16.1,9.8,16,9.7,15.8l-1-3.1l-2.5-0.9c-0.3-0.1-0.3-0.5,0-0.5l10.3-4c0.2-0.1,0.4,0.1,0.4,0.3&#10;L15.1,16.5z"/></svg>